<svg width="24" height="24" viewBox="0 0 24 24" fill="none" xmlns="http://www.w3.org/2000/svg">
<path d="M21.375 12.0002C21.375 12.2986 21.2565 12.5848 21.0455 12.7957C20.8345 13.0067 20.5484 13.1252 20.25 13.1252H13.125V20.2502C13.125 20.5486 13.0065 20.8348 12.7955 21.0457C12.5845 21.2567 12.2984 21.3752 12 21.3752C11.7016 21.3752 11.4155 21.2567 11.2045 21.0457C10.9935 20.8348 10.875 20.5486 10.875 20.2502V13.1252H3.75C3.45163 13.1252 3.16548 13.0067 2.9545 12.7957C2.74353 12.5848 2.625 12.2986 2.625 12.0002C2.625 11.7019 2.74353 11.4157 2.9545 11.2047C3.16548 10.9938 3.45163 10.8752 3.75 10.8752H10.875V3.75024C10.875 3.45188 10.9935 3.16573 11.2045 2.95475C11.4155 2.74377 11.7016 2.62524 12 2.62524C12.2984 2.62524 12.5845 2.74377 12.7955 2.95475C13.0065 3.16573 13.125 3.45188 13.125 3.75024V10.8752H20.25C20.5484 10.8752 20.8345 10.9938 21.0455 11.2047C21.2565 11.4157 21.375 11.7019 21.375 12.0002Z" fill="#60646C"/>
</svg>
