<svg width="25" height="11" viewBox="0 0 25 11" fill="none" xmlns="http://www.w3.org/2000/svg">
<path fill-rule="evenodd" clip-rule="evenodd" d="M4.56809 1.37927C4.27509 1.74056 3.80628 2.02553 3.33748 1.98482C3.27888 1.49631 3.5084 0.977265 3.77698 0.65668C4.06999 0.285209 4.58274 0.0205987 4.99783 0.000244141C5.04666 0.509109 4.85621 1.0078 4.56809 1.37927ZM4.99283 2.08149C4.57982 2.05672 4.20297 2.21091 3.89857 2.33546C3.70269 2.41562 3.53681 2.48349 3.41061 2.48349C3.26899 2.48349 3.09627 2.41199 2.90234 2.33171C2.64822 2.22651 2.3577 2.10625 2.05304 2.11202C1.35471 2.12219 0.705225 2.53437 0.348739 3.19081C-0.383767 4.50368 0.158287 6.44754 0.866376 7.51616C1.2131 8.04538 1.62818 8.62548 2.17512 8.60513C2.41574 8.59567 2.58883 8.51913 2.76796 8.43993C2.97418 8.34874 3.18842 8.25401 3.52293 8.25401C3.84585 8.25401 4.05071 8.34627 4.24737 8.43483C4.43436 8.51904 4.61393 8.59991 4.88051 8.59495C5.44698 8.58477 5.80347 8.06573 6.15019 7.53651C6.52436 6.96851 6.68878 6.41417 6.71373 6.33006L6.71666 6.32033C6.71666 6.32033 6.71144 6.3175 6.70328 6.31361C6.5782 6.25394 5.62218 5.79788 5.61302 4.57492C5.60381 3.54843 6.3713 3.02834 6.49212 2.94647C6.49947 2.94149 6.50443 2.93813 6.50667 2.93638C6.01834 2.18326 5.25653 2.10184 4.99283 2.08149ZM8.91427 8.53898V0.605778H11.771C13.2458 0.605778 14.2762 1.66422 14.2762 3.21116C14.2762 4.75811 13.2263 5.82673 11.732 5.82673H10.096V8.53898H8.91427ZM10.0958 1.64388H11.4583C12.4838 1.64388 13.0698 2.21381 13.0698 3.21627C13.0698 4.21874 12.4838 4.79375 11.4534 4.79375H10.0958V1.64388ZM18.1779 7.58741C17.8654 8.20822 17.1768 8.60005 16.4345 8.60005C15.3358 8.60005 14.5691 7.91817 14.5691 6.89027C14.5691 5.87254 15.3114 5.28734 16.6836 5.20084L18.1584 5.10924V4.67162C18.1584 4.02536 17.7531 3.67424 17.0303 3.67424C16.4345 3.67424 15.9999 3.99483 15.912 4.48334H14.8475C14.8816 3.45543 15.8095 2.7074 17.0645 2.7074C18.4172 2.7074 19.2962 3.44525 19.2962 4.5902V8.53899H18.2023V7.58741H18.1779ZM16.752 7.65865C16.1221 7.65865 15.7216 7.34315 15.7216 6.85973C15.7216 6.36105 16.1074 6.07099 16.8448 6.0252L18.1584 5.93869V6.38649C18.1584 7.12943 17.5529 7.65865 16.752 7.65865ZM22.9246 8.84939C22.4509 10.2386 21.9088 10.6966 20.7563 10.6966C20.6684 10.6966 20.3754 10.6864 20.3071 10.666V9.71446C20.3803 9.72464 20.561 9.73481 20.6538 9.73481C21.1763 9.73481 21.4693 9.50583 21.65 8.91045L21.7574 8.55934L19.7553 2.78373H20.9907L22.3825 7.47037H22.4069L23.7987 2.78373H25L22.9246 8.84939Z" fill="#8B8D98"/>
</svg>
