<svg width="20" height="20" viewBox="0 0 20 20" fill="none" xmlns="http://www.w3.org/2000/svg">
<path d="M17.5 9.99998C17.5 10.1657 17.4341 10.3247 17.3169 10.4419C17.1997 10.5591 17.0407 10.625 16.875 10.625H4.63358L9.19218 15.1828C9.25024 15.2409 9.29631 15.3098 9.32773 15.3857C9.35916 15.4615 9.37534 15.5429 9.37534 15.625C9.37534 15.7071 9.35916 15.7884 9.32773 15.8643C9.29631 15.9402 9.25024 16.0091 9.19218 16.0672C9.13411 16.1252 9.06517 16.1713 8.9893 16.2027C8.91343 16.2342 8.83211 16.2503 8.74999 16.2503C8.66787 16.2503 8.58655 16.2342 8.51068 16.2027C8.43481 16.1713 8.36587 16.1252 8.3078 16.0672L2.6828 10.4422C2.62469 10.3841 2.57859 10.3152 2.54714 10.2393C2.51569 10.1634 2.4995 10.0821 2.4995 9.99998C2.4995 9.91785 2.51569 9.83652 2.54714 9.76064C2.57859 9.68477 2.62469 9.61584 2.6828 9.55779L8.3078 3.93279C8.42508 3.81552 8.58414 3.74963 8.74999 3.74963C8.91584 3.74963 9.0749 3.81552 9.19218 3.93279C9.30945 4.05007 9.37534 4.20913 9.37534 4.37498C9.37534 4.54083 9.30945 4.69989 9.19218 4.81717L4.63358 9.37498H16.875C17.0407 9.37498 17.1997 9.44083 17.3169 9.55804C17.4341 9.67525 17.5 9.83422 17.5 9.99998Z" fill="#1C2024"/>
</svg>
