<svg width="35" height="24" viewBox="0 0 35 24" fill="none" xmlns="http://www.w3.org/2000/svg">
<g clip-path="url(#clip0_3001_1309)">
<rect y="2.00024" width="35" height="20" rx="3.75" fill="white"/>
<path d="M25 5.75024H10C9.66848 5.75024 9.35054 5.88194 9.11612 6.11636C8.8817 6.35078 8.75 6.66872 8.75 7.00024V17.0002C8.75 17.3318 8.8817 17.6497 9.11612 17.8841C9.35054 18.1185 9.66848 18.2502 10 18.2502H25C25.3315 18.2502 25.6495 18.1185 25.8839 17.8841C26.1183 17.6497 26.25 17.3318 26.25 17.0002V7.00024C26.25 6.66872 26.1183 6.35078 25.8839 6.11636C25.6495 5.88194 25.3315 5.75024 25 5.75024ZM25 7.00024V8.87524H10V7.00024H25ZM25 17.0002H10V10.1252H25V17.0002ZM23.75 15.1252C23.75 15.291 23.6842 15.45 23.5669 15.5672C23.4497 15.6844 23.2908 15.7502 23.125 15.7502H20.625C20.4592 15.7502 20.3003 15.6844 20.1831 15.5672C20.0658 15.45 20 15.291 20 15.1252C20 14.9595 20.0658 14.8005 20.1831 14.6833C20.3003 14.5661 20.4592 14.5002 20.625 14.5002H23.125C23.2908 14.5002 23.4497 14.5661 23.5669 14.6833C23.6842 14.8005 23.75 14.9595 23.75 15.1252ZM18.75 15.1252C18.75 15.291 18.6842 15.45 18.5669 15.5672C18.4497 15.6844 18.2908 15.7502 18.125 15.7502H16.875C16.7092 15.7502 16.5503 15.6844 16.4331 15.5672C16.3158 15.45 16.25 15.291 16.25 15.1252C16.25 14.9595 16.3158 14.8005 16.4331 14.6833C16.5503 14.5661 16.7092 14.5002 16.875 14.5002H18.125C18.2908 14.5002 18.4497 14.5661 18.5669 14.6833C18.6842 14.8005 18.75 14.9595 18.75 15.1252Z" fill="#60646C"/>
</g>
<rect x="0.3125" y="2.31274" width="34.375" height="19.375" rx="3.4375" stroke="#DDDDE3" stroke-width="0.625"/>
<defs>
<clipPath id="clip0_3001_1309">
<rect y="2.00024" width="35" height="20" rx="3.75" fill="white"/>
</clipPath>
</defs>
</svg>
