<svg width="24" height="24" viewBox="0 0 24 24" fill="none" xmlns="http://www.w3.org/2000/svg">
<path d="M19.546 17.9543C19.7573 18.1656 19.876 18.4523 19.876 18.7512C19.876 19.05 19.7573 19.3367 19.546 19.548C19.3346 19.7594 19.048 19.8781 18.7491 19.8781C18.4502 19.8781 18.1636 19.7594 17.9522 19.548L12 13.594L6.04596 19.5462C5.83461 19.7575 5.54797 19.8762 5.24908 19.8762C4.9502 19.8762 4.66355 19.7575 4.45221 19.5462C4.24086 19.3348 4.12213 19.0482 4.12213 18.7493C4.12213 18.4504 4.24086 18.1638 4.45221 17.9524L10.4063 12.0002L4.45408 6.04616C4.24274 5.83482 4.12401 5.54817 4.12401 5.24929C4.12401 4.9504 4.24274 4.66376 4.45408 4.45241C4.66543 4.24107 4.95207 4.12234 5.25096 4.12234C5.54984 4.12234 5.83649 4.24107 6.04783 4.45241L12 10.4065L17.9541 4.45148C18.1654 4.24013 18.4521 4.1214 18.751 4.1214C19.0498 4.1214 19.3365 4.24013 19.5478 4.45148C19.7592 4.66282 19.8779 4.94946 19.8779 5.24835C19.8779 5.54724 19.7592 5.83388 19.5478 6.04523L13.5938 12.0002L19.546 17.9543Z" fill="#60646C"/>
</svg>
