<svg width="35" height="20" viewBox="0 0 35 20" fill="none" xmlns="http://www.w3.org/2000/svg">
<path d="M0.3125 4.00024C0.3125 1.96369 1.96345 0.312744 4 0.312744H31C33.0366 0.312744 34.6875 1.96369 34.6875 4.00024V16.0002C34.6875 18.0368 33.0366 19.6877 31 19.6877H4C1.96345 19.6877 0.3125 18.0368 0.3125 16.0002V4.00024Z" fill="white"/>
<path d="M0.3125 4.00024C0.3125 1.96369 1.96345 0.312744 4 0.312744H31C33.0366 0.312744 34.6875 1.96369 34.6875 4.00024V16.0002C34.6875 18.0368 33.0366 19.6877 31 19.6877H4C1.96345 19.6877 0.3125 18.0368 0.3125 16.0002V4.00024Z" stroke="#DDDDE3" stroke-width="0.625"/>
<path d="M17.0994 13.4787V6.57691C19.0099 7.06601 20.2108 8.96807 19.7195 10.8701C19.392 12.1744 18.4095 13.1526 17.0994 13.4787Z" fill="#0079BE"/>
<path d="M12.8962 9.1311C12.405 11.0332 13.5513 12.9896 15.4618 13.4787V6.57691C14.2063 6.90298 13.2238 7.88118 12.8962 9.1311Z" fill="#0079BE"/>
<path fill-rule="evenodd" clip-rule="evenodd" d="M16.1169 16.2502H18.3549C21.8483 16.2502 24.6322 13.4787 24.7414 10.055V10.0006C24.6868 6.52258 21.8483 3.69667 18.3549 3.75102H15.8439C12.5142 3.8597 9.89412 6.68562 10.0033 10.055C10.0033 13.4243 12.7326 16.1959 16.1169 16.2502ZM11.0951 10.0006C11.0951 7.17469 13.4422 4.83788 16.2807 4.83788C19.1191 4.83788 21.4663 7.17469 21.4663 10.0006C21.4663 12.8265 19.1191 15.1633 16.2807 15.1633C13.4422 15.1633 11.0951 12.8265 11.0951 10.0006Z" fill="#0079BE"/>
</svg>
