<svg xmlns="http://www.w3.org/2000/svg" width="133" height="39" viewBox="0 0 133 39" fill="none">
<g filter="url(#filter0_d_2001_1169)">
<path d="M15.232 26.0569C15.8462 26.0569 16.4463 25.9955 17.0227 25.8726C17.6133 25.7498 18.1992 25.5938 18.7756 25.4096V29.6005C18.1708 29.8698 17.4243 30.0919 16.5219 30.2667C15.6336 30.451 14.665 30.5455 13.6066 30.5455C12.3781 30.5455 11.2678 30.347 10.285 29.9549C9.31171 29.5485 8.54628 28.854 7.9793 27.8712C7.42649 26.8743 7.14772 25.4899 7.14772 23.7181V13.7628L4.45456 14.2731V10.0444L7.14772 9.56715V5.14468L12.775 4.15247V8.57965L18.5536 7.55908V11.7878L12.775 12.8084V23.7134C12.775 24.5024 12.9971 25.093 13.4412 25.4852C13.8948 25.8679 14.4949 26.0569 15.232 26.0569Z" fill="#ffffff" stroke="#ffffff" stroke-width="0.472485" stroke-linejoin="round"/>
<path d="M103.717 26.0569C104.331 26.0569 104.931 25.9955 105.508 25.8726C106.098 25.7498 106.684 25.5938 107.261 25.4096V29.6005C106.656 29.8698 105.909 30.0919 105.007 30.2667C104.119 30.451 103.15 30.5455 102.092 30.5455C100.863 30.5455 99.7528 30.347 98.77 29.9549C97.7967 29.5485 97.0313 28.854 96.4643 27.8712C95.9115 26.8743 95.6327 25.4899 95.6327 23.7181V13.7628L92.9396 14.2731V10.0444L95.6327 9.56715V5.14468L101.26 4.15247V8.57965L107.039 7.55908V11.7878L101.26 12.8084V23.7134C101.26 24.5024 101.482 25.093 101.926 25.4852C102.38 25.8679 102.98 26.0569 103.717 26.0569Z" fill="#ffffff" stroke="#ffffff" stroke-width="0.472485" stroke-linejoin="round"/>
<path d="M27.4754 14.2638V30.1723H21.8481V15.2088L27.4754 14.2638Z" fill="#ffffff" stroke="#ffffff" stroke-width="0.472485" stroke-linejoin="round"/>
<path d="M24.6617 12.2154C26.354 12.2154 27.7258 10.8435 27.7258 9.15127C27.7258 7.45901 26.354 6.08716 24.6617 6.08716C22.9694 6.08716 21.5976 7.45901 21.5976 9.15127C21.5976 10.8435 22.9694 12.2154 24.6617 12.2154Z" fill="#ffffff" stroke="#ffffff" stroke-width="0.472485" stroke-linejoin="round"/>
<path d="M40.9931 30.5408C38.952 30.5408 37.2085 30.1722 35.7722 29.4352C34.3311 28.6839 33.2397 27.5263 32.4884 25.9671C31.7372 24.4032 31.3639 22.4046 31.3639 19.9666C31.3639 17.5285 31.7891 15.3882 32.6396 13.8006C33.4995 12.1989 34.6902 11.0271 36.2021 10.2759C37.7283 9.52463 39.4954 9.15137 41.4987 9.15137C42.9256 9.15137 44.1541 9.29311 45.1888 9.5766C46.233 9.84592 47.1449 10.1719 47.9198 10.5546L46.2566 14.911C45.3684 14.5519 44.5462 14.2637 43.7855 14.0416C43.0248 13.8101 42.2594 13.6919 41.4987 13.6919C40.5159 13.6919 39.6938 13.9235 39.0418 14.3912C38.3897 14.8448 37.9031 15.5346 37.5818 16.4607C37.2605 17.3821 37.0999 18.5396 37.0999 19.9288C37.0999 21.3179 37.27 22.4282 37.6149 23.3259C37.9598 24.2236 38.4559 24.8946 39.1079 25.3387C39.76 25.7687 40.5537 25.986 41.4892 25.986C42.6563 25.986 43.6958 25.8301 44.6077 25.523C45.5195 25.2017 46.4031 24.7623 47.263 24.1953V29.0146C46.4031 29.558 45.4959 29.9454 44.551 30.177C43.6154 30.4226 42.4295 30.5455 40.9884 30.5455L40.9931 30.5408Z" fill="#ffffff" stroke="#ffffff" stroke-width="0.472485" stroke-linejoin="round"/>
<path d="M56.7529 1.45459V14.3015C56.7529 15.0763 56.7198 15.8512 56.6584 16.6261C56.597 17.401 56.5308 18.1758 56.4552 18.9507H56.5308C56.9136 18.4074 57.301 17.8734 57.6932 17.3443C58.0995 16.8151 58.5295 16.3048 58.983 15.8134L64.7615 9.53881H71.1117L62.9188 18.4924L71.6126 30.177H65.1159L59.172 21.814L56.7529 23.7512V30.1722H51.1256V2.47303L56.7529 1.45459Z" fill="#ffffff" stroke="#ffffff" stroke-width="0.472485" stroke-linejoin="round"/>
<path d="M80.3313 9.26947C82.2112 8.93803 83.8897 9.01622 85.3765 9.50253C86.8616 9.9795 88.0923 10.8372 89.0733 12.0747C90.0544 13.3123 90.7173 14.9226 91.0653 16.8955L91.5394 19.585L78.4364 21.8955C78.7725 23.4482 79.4544 24.5945 80.4876 25.3383C81.5276 26.0666 82.8293 26.2928 84.3927 26.0171C85.6909 25.7881 86.8536 25.4441 87.8864 24.9885C88.9191 24.5329 89.956 23.9374 91.0016 23.2014L91.7582 27.4915C90.8408 28.1666 89.8486 28.7158 88.786 29.1382C87.7374 29.5582 86.4271 29.9092 84.8684 30.184C82.8303 30.5434 80.9584 30.4849 79.2536 30.013C77.5581 29.5396 76.127 28.6069 74.9582 27.2297C73.8025 25.8454 73.0193 23.9876 72.6066 21.6472C72.1938 19.3067 72.2396 17.226 72.7626 15.5122C73.2971 13.7818 74.214 12.3967 75.5168 11.3514C76.8182 10.2968 78.4275 9.60033 80.3398 9.26321L80.3313 9.26947ZM81.0643 13.2087C79.9848 13.399 79.1521 13.9009 78.5579 14.7205C77.9766 15.5331 77.7637 16.6933 77.9122 18.188L85.6922 16.8162C85.5329 15.9951 85.2544 15.2861 84.8481 14.6957C84.4557 14.1028 83.9428 13.6703 83.3087 13.3934C82.6838 13.115 81.9391 13.0544 81.0643 13.2087Z" fill="#ffffff" stroke="#ffffff" stroke-width="0.472485" stroke-linejoin="round"/>
<path d="M116.875 9.26911C118.754 8.93766 120.433 9.01586 121.92 9.50216C123.405 9.97914 124.635 10.8368 125.617 12.0744C126.597 13.3119 127.261 14.9223 127.608 16.8951L128.083 19.5846L114.98 21.8951C115.316 23.4478 115.998 24.5942 117.031 25.338C118.071 26.0662 119.373 26.2924 120.936 26.0167C122.234 25.7879 123.397 25.4437 124.43 24.9881C125.462 24.5325 126.499 23.9371 127.545 23.201L128.302 27.4911C127.384 28.1663 126.392 28.7154 125.33 29.1378C124.281 29.5579 122.971 29.9088 121.407 30.1845C119.369 30.5438 117.502 30.4845 115.792 30.0135C114.097 29.54 112.666 28.6073 111.497 27.2302C110.341 25.8459 109.558 23.9881 109.145 21.6476C108.732 19.3072 108.778 17.2265 109.301 15.5126C109.831 13.7831 110.753 12.3972 112.056 11.3518C113.357 10.2972 114.966 9.60079 116.878 9.26367L116.875 9.26911ZM117.608 13.2083C116.528 13.3987 115.691 13.9014 115.101 14.7202C114.52 15.5327 114.307 16.6929 114.456 18.1876L122.235 16.8159C122.077 15.9947 121.798 15.2857 121.392 14.6954C120.998 14.1025 120.486 13.67 119.852 13.3931C119.227 13.1147 118.478 13.0549 117.608 13.2083Z" fill="#ffffff" stroke="#ffffff" stroke-width="0.472485" stroke-linejoin="round"/>
</g>
<defs fill="#ffffff">
<filter id="filter0_d_2001_1169" x="-1" y="0" width="134.545" height="40" filterUnits="userSpaceOnUse" color-interpolation-filters="sRGB" fill="#ffffff">
<feFlood flood-opacity="0" result="BackgroundImageFix" fill="#ffffff"/>
<feColorMatrix in="SourceAlpha" type="matrix" values="0 0 0 0 0 0 0 0 0 0 0 0 0 0 0 0 0 0 127 0" result="hardAlpha" fill="#ffffff"/>
<feOffset dy="4" fill="#ffffff"/>
<feGaussianBlur stdDeviation="2" fill="#ffffff"/>
<feComposite in2="hardAlpha" operator="out" fill="#ffffff"/>
<feColorMatrix type="matrix" values="0 0 0 0 0 0 0 0 0 0 0 0 0 0 0 0 0 0 0.25 0" fill="#ffffff"/>
<feBlend mode="normal" in2="BackgroundImageFix" result="effect1_dropShadow_2001_1169" fill="#ffffff"/>
<feBlend mode="normal" in="SourceGraphic" in2="effect1_dropShadow_2001_1169" result="shape" fill="#ffffff"/>
</filter>
</defs>
</svg>