<svg width="21" height="20" viewBox="0 0 21 20" fill="none" xmlns="http://www.w3.org/2000/svg">
<path d="M16.2954 6.25H13.7954V4.375C13.7954 3.38044 13.4003 2.42661 12.6971 1.72335C11.9938 1.02009 11.04 0.625 10.0454 0.625C9.05085 0.625 8.09702 1.02009 7.39376 1.72335C6.6905 2.42661 6.29541 3.38044 6.29541 4.375V6.25H3.79541C3.46389 6.25 3.14595 6.3817 2.91153 6.61612C2.67711 6.85054 2.54541 7.16848 2.54541 7.5V16.25C2.54541 16.5815 2.67711 16.8995 2.91153 17.1339C3.14595 17.3683 3.46389 17.5 3.79541 17.5H16.2954C16.6269 17.5 16.9449 17.3683 17.1793 17.1339C17.4137 16.8995 17.5454 16.5815 17.5454 16.25V7.5C17.5454 7.16848 17.4137 6.85054 17.1793 6.61612C16.9449 6.3817 16.6269 6.25 16.2954 6.25ZM10.0454 12.8125C9.85999 12.8125 9.67873 12.7575 9.52456 12.6545C9.37039 12.5515 9.25023 12.4051 9.17927 12.2338C9.10832 12.0625 9.08975 11.874 9.12592 11.6921C9.1621 11.5102 9.25139 11.3432 9.3825 11.2121C9.51361 11.081 9.68066 10.9917 9.86251 10.9555C10.0444 10.9193 10.2329 10.9379 10.4042 11.0089C10.5755 11.0798 10.7219 11.2 10.8249 11.3542C10.9279 11.5083 10.9829 11.6896 10.9829 11.875C10.9829 12.1236 10.8841 12.3621 10.7083 12.5379C10.5325 12.7137 10.2941 12.8125 10.0454 12.8125ZM12.5454 6.25H7.54541V4.375C7.54541 3.71196 7.8088 3.07607 8.27764 2.60723C8.74648 2.13839 9.38237 1.875 10.0454 1.875C10.7085 1.875 11.3443 2.13839 11.8132 2.60723C12.282 3.07607 12.5454 3.71196 12.5454 4.375V6.25Z" fill="#7E808A"/>
</svg>
