<svg width="14" height="14" viewBox="0 0 14 14" fill="none" xmlns="http://www.w3.org/2000/svg">
<path d="M12.3594 4.81712C12.3375 4.76244 12.3145 4.70775 12.291 4.65306C11.9382 3.83933 11.3672 3.13904 10.6411 2.62962H11.8125C11.9285 2.62962 12.0398 2.58353 12.1219 2.50148C12.2039 2.41944 12.25 2.30816 12.25 2.19212C12.25 2.07609 12.2039 1.96481 12.1219 1.88276C12.0398 1.80072 11.9285 1.75462 11.8125 1.75462H6.125C4.91537 1.75616 3.75055 2.21255 2.86184 3.03318C1.97314 3.8538 1.42555 4.97863 1.32781 6.18431C0.949901 6.27825 0.614119 6.49556 0.373618 6.80183C0.133118 7.1081 0.00164146 7.48584 0 7.87525C0 7.99128 0.0460936 8.10256 0.128141 8.18461C0.210188 8.26665 0.321468 8.31275 0.4375 8.31275C0.553532 8.31275 0.664812 8.26665 0.746859 8.18461C0.828906 8.10256 0.875 7.99128 0.875 7.87525C0.875102 7.71571 0.91882 7.55924 1.00142 7.42275C1.08403 7.28626 1.20238 7.17496 1.34367 7.10087C1.45257 8.08244 1.86186 9.00644 2.51562 9.74665L3.2025 11.6695C3.26322 11.8395 3.37508 11.9867 3.52274 12.0906C3.67039 12.1946 3.8466 12.2504 4.02719 12.2502H4.72281C4.90331 12.2503 5.0794 12.1945 5.22694 12.0905C5.37448 11.9865 5.48626 11.8395 5.54695 11.6695L5.65195 11.3752H8.78555L8.89055 11.6695C8.95124 11.8395 9.06302 11.9865 9.21056 12.0905C9.3581 12.1945 9.53419 12.2503 9.71469 12.2502H10.4103C10.5908 12.2503 10.7669 12.1945 10.9144 12.0905C11.062 11.9865 11.1738 11.8395 11.2345 11.6695L12.1209 9.18775H12.25C12.5981 9.18775 12.9319 9.04947 13.1781 8.80333C13.4242 8.55718 13.5625 8.22334 13.5625 7.87525V6.12525C13.5625 5.79605 13.4389 5.47886 13.216 5.23656C12.9932 4.99426 12.6874 4.84456 12.3594 4.81712ZM8.3125 3.93775H6.125C6.00897 3.93775 5.89769 3.89165 5.81564 3.80961C5.73359 3.72756 5.6875 3.61628 5.6875 3.50025C5.6875 3.38422 5.73359 3.27294 5.81564 3.19089C5.89769 3.10884 6.00897 3.06275 6.125 3.06275H8.3125C8.42853 3.06275 8.53981 3.10884 8.62186 3.19089C8.70391 3.27294 8.75 3.38422 8.75 3.50025C8.75 3.61628 8.70391 3.72756 8.62186 3.80961C8.53981 3.89165 8.42853 3.93775 8.3125 3.93775ZM9.84375 7.00025C9.71396 7.00025 9.58708 6.96176 9.47916 6.88965C9.37124 6.81754 9.28712 6.71505 9.23745 6.59513C9.18778 6.47522 9.17479 6.34327 9.20011 6.21597C9.22543 6.08867 9.28793 5.97174 9.37971 5.87996C9.47149 5.78818 9.58842 5.72568 9.71572 5.70036C9.84302 5.67504 9.97497 5.68803 10.0949 5.7377C10.2148 5.78737 10.3173 5.87149 10.3894 5.97941C10.4615 6.08733 10.5 6.2142 10.5 6.344C10.5 6.51805 10.4309 6.68497 10.3078 6.80804C10.1847 6.93111 10.0178 7.00025 9.84375 7.00025Z" fill="#E9F9EE"/>
</svg>
